HIERARCHY
ROOT Hips
{
	OFFSET 0.000000 0.000000 0.000000
	CHANNELS 6 Xposition Yposition Zposition Zrotation Yrotation Xrotation 
	JOINT LHipJoint
	{
		OFFSET 0.000000 0.000000 0.000000
		CHANNELS 3 Zrotation Yrotation Xrotation
		JOINT LeftUpLeg
		{
			OFFSET 1.363060 -1.794630 0.839290
			CHANNELS 3 Zrotation Yrotation Xrotation
			JOINT LeftLeg
			{
				OFFSET 2.448110 -6.726130 0.000000
				CHANNELS 3 Zrotation Yrotation Xrotation
				JOINT LeftFoot
				{
					OFFSET 2.562200 -7.039590 0.000000
					CHANNELS 3 Zrotation Yrotation Xrotation
					JOINT LeftToeBase
					{
						OFFSET 0.157640 -0.433110 2.322550
						CHANNELS 3 Zrotation Yrotation Xrotation
						End Site
						{
							OFFSET 0.000000 0.000000 0.000000
						}
					}
				}
			}
		}
	}
	JOINT RHipJoint
	{
		OFFSET 0.000000 0.000000 0.000000
		CHANNELS 3 Zrotation Yrotation Xrotation
		JOINT RightUpLeg
		{
			OFFSET -1.305520 -1.794630 0.839290
			CHANNELS 3 Zrotation Yrotation Xrotation
			JOINT RightLeg
			{
				OFFSET -2.542530 -6.985550 0.000000
				CHANNELS 3 Zrotation Yrotation Xrotation
				JOINT RightFoot
				{
					OFFSET -2.568260 -7.056230 0.000000
					CHANNELS 3 Zrotation Yrotation Xrotation
					JOINT RightToeBase
					{
						OFFSET -0.164730 -0.452590 2.363150
						CHANNELS 3 Zrotation Yrotation Xrotation
						End Site
						{
							OFFSET 0.000000 0.000000 0.000000
						}
					}
				}
			}
		}
	}
}
MOTION
Frames: 31
Frame Time: 0.008333
2.077113 16.603159 5.481311 6.003180 10.624919 7.139462 -7.919849 1.733221 2.174854 -18.966008 -0.198693 -34.614188 -3.020612 1.009713 25.021288 0.783384 3.713614 -4.368303 0.366001 0.000000 -26.624400 10.420370 -2.734511 0.921494 11.777631 2.766013 14.347855 2.905046 -1.057767 17.542599 1.602084 16.806373 -9.382578 179.304200 0.000001 -15.696300
2.112519 16.605145 5.641303 5.956735 9.557808 6.893334 -7.949878 1.767597 2.192461 -18.536788 -0.407344 -34.342706 -2.872293 1.101932 26.213081 0.891154 4.389268 -4.552649 0.384800 0.000000 -24.605400 10.563400 -2.845203 0.890771 11.122986 2.622952 14.064804 2.776991 -1.309838 19.319884 1.696922 17.848667 -8.039520 179.544700 -0.000001 -13.742000
2.146082 16.608510 5.800700 5.947665 8.492548 6.632911 -7.978587 1.819734 2.167117 -18.233731 -0.379032 -34.023901 -2.745791 1.188345 27.323403 0.992468 5.031414 -4.735859 0.397200 -0.000000 -22.885500 10.730408 -2.969847 0.863899 10.364316 2.407807 13.616287 2.603678 -1.580041 21.303317 1.775528 18.965345 -6.373375 179.924700 -0.000000 -10.027800
2.177867 16.613114 5.958783 5.975888 7.436270 6.368768 -8.003199 1.887808 2.106724 -18.050675 -0.148000 -33.648101 -2.645028 1.264458 28.300758 1.086143 5.628411 -4.935815 0.400799 0.000000 -21.511700 10.918749 -3.104247 0.842120 9.515146 2.126442 12.985601 2.378126 -1.860799 23.484439 1.824350 20.100823 -4.347526 -179.508500 0.000000 -4.075900
2.207985 16.618750 6.114891 6.038412 6.397937 6.110097 -8.021703 1.968511 2.020573 -17.973733 0.239601 -33.212196 -2.571350 1.327374 29.114624 1.172321 6.174636 -5.175165 0.392600 -0.000000 -20.488599 11.123810 -3.240885 0.825259 8.599459 1.786639 12.166478 2.099168 -2.140754 25.840261 1.830421 21.186884 -1.966275 1.279100 -0.000000 -4.226701
2.236589 16.625085 6.268344 6.129901 5.387543 5.864013 -8.033201 2.057454 1.918298 -17.983629 0.732351 -32.717537 -2.523758 1.375535 29.754733 1.252001 6.668799 -5.476839 0.369000 0.000000 -19.788300 11.339563 -3.369556 0.810827 7.648604 1.393400 11.161365 1.774666 -2.406498 28.342037 1.785280 22.150091 0.694602 2.282200 0.000000 -14.412400
2.263879 16.631774 6.418636 6.244528 4.415720 5.634391 -8.037332 2.150018 1.809745 -18.060738 1.275667 -32.167559 -2.499271 1.408420 30.226837 1.327113 7.115940 -5.858281 0.327100 -0.000000 -19.357000 11.560169 -3.479242 0.792808 6.690460 0.943251 9.977843 1.422804 -2.646344 30.977335 1.689608 22.918620 3.445939 3.422100 -0.000000 -25.182300
2.290086 16.638453 6.565423 6.376983 3.489686 5.424004 -8.033840 2.242015 1.703879 -18.186414 1.816519 -31.568631 -2.493494 1.426549 30.548865 1.400624 7.528646 -6.328572 0.265000 0.000001 -19.125201 11.780002 -3.561609 0.765699 5.749826 0.442711 8.630849 1.063865 -2.855226 33.742155 1.553463 23.404692 6.069230 4.566300 0.000000 -35.042500
2.315435 16.644849 6.708455 6.520669 2.612895 5.234771 -8.023322 2.329665 1.607677 -18.341763 2.308561 -30.929622 -2.501025 1.431482 30.747216 1.475957 7.924074 -6.886855 0.182300 0.000000 -19.017500 11.992889 -3.612706 0.726950 4.853829 -0.085051 7.147303 0.711297 -3.035091 36.616241 1.390045 23.502939 8.429579 5.582199 0.000000 -43.524600
2.340273 16.650829 6.847705 6.666559 1.786259 5.065949 -8.007864 2.409479 1.525315 -18.506853 2.717628 -30.259698 -2.515878 1.425614 30.853811 1.556364 8.320601 -7.523904 0.079300 0.000000 -18.962400 12.192518 -3.631489 0.675501 4.030751 -0.612754 5.562647 0.372401 -3.191095 39.560491 1.210752 23.117546 10.457325 6.354300 0.000000 -50.726200
2.364945 16.656466 6.983269 6.805568 1.009654 4.912944 -7.990939 2.478525 1.458376 -18.662903 3.023626 -29.565037 -2.532104 1.411690 30.900059 1.644409 8.735779 -8.221834 -0.042700 0.000000 -18.900200 12.373592 -3.618795 0.610283 3.302010 -1.120368 3.912592 0.051660 -3.329273 42.533366 1.024193 22.190909 12.087148 6.785500 -0.000000 -56.648100
2.389740 16.661949 7.115426 6.930109 0.281128 4.769928 -7.976446 2.534936 1.405991 -18.794627 3.221588 -28.851413 -2.544581 1.392707 30.915291 1.741567 9.183442 -8.957863 -0.181700 0.000000 -18.791600 12.532707 -3.576787 0.530816 2.680023 -1.595642 2.227394 -0.249171 -3.455243 45.496592 0.835043 20.714215 13.265920 6.822500 0.000000 -61.316299
2.414933 16.667527 7.244549 7.033555 -0.402208 4.630301 -7.968572 2.577910 1.365224 -18.890594 3.322219 -28.123881 -2.549468 1.371469 30.922565 1.847708 9.670553 -9.705636 -0.335000 -0.000000 -18.621200 12.667645 -3.508767 0.438002 2.170967 -2.031035 0.532714 -0.529345 -3.573261 48.411149 0.644697 18.729681 13.956967 6.467999 -0.000000 -64.725001
2.440741 16.673533 7.371070 7.110539 -1.044378 4.488050 -7.971442 2.607791 1.331501 -18.943925 3.350363 -27.387321 -2.544664 1.350342 30.937116 1.960766 10.194364 -10.438719 -0.499000 0.000000 -18.397100 12.777124 -3.418925 0.334204 1.775177 -2.422009 -1.151815 -0.788143 -3.686114 51.239908 0.452706 16.326526 14.143243 5.778600 0.000000 -66.865799
2.467249 16.680290 7.495497 7.158470 -1.650612 4.338836 -7.987890 2.626183 1.299110 -18.952737 3.341549 -26.646623 -2.530064 1.331015 30.965285 2.077013 10.742904 -11.133285 -0.669000 -0.000001 -18.145800 12.861403 -3.311743 0.222997 1.487543 -2.766598 -2.813060 -1.024461 -3.795123 53.947428 0.258208 13.629471 13.831849 4.851600 -0.000000 -67.757100
2.494485 16.688046 7.618307 7.175360 -2.226335 4.179995 -8.020372 2.635396 1.262160 -18.917435 3.337408 -25.905273 -2.507187 1.314252 31.004073 2.191295 11.295215 -11.770416 -0.839600 -0.000001 -17.903200 12.920807 -3.192245 0.109172 1.301353 -3.062843 -4.442164 -1.236520 -3.900476 56.499868 0.061356 10.784073 13.056929 3.805200 0.000000 -67.462299
2.522381 16.696998 7.739906 7.161465 -2.776881 4.011145 -8.069897 2.638199 1.215217 -18.841655 3.379007 -25.166081 -2.478947 1.299928 31.042764 2.297964 11.825205 -12.338212 -1.005300 0.000001 -17.705800 12.956499 -3.065077 -0.002078 1.206435 -3.309856 -6.035976 -1.422352 -4.001387 58.866519 -0.135912 7.939392 11.878729 2.756400 0.000000 -66.097600
2.550886 16.707255 7.860720 7.116730 -3.306321 3.835999 -8.136619 2.637246 1.154754 -18.728363 3.501054 -24.433582 -2.448824 1.287089 31.066711 2.391568 12.304398 -12.832842 -1.160900 0.000000 -17.583000 12.969673 -2.934670 -0.105035 1.193714 -3.507503 -7.597305 -1.580015 -4.096312 61.021928 -0.329282 5.233122 10.376898 1.802200 0.000000 -63.801600
2.579635 16.718792 7.980833 7.048132 -3.817739 3.652004 -8.218946 2.635500 1.077417 -18.585916 3.729968 -23.697696 -2.420842 1.274113 31.051908 2.467889 12.709593 -13.255271 -1.302100 0.000000 -17.551000 12.962477 -2.804198 -0.196044 1.246024 -3.656680 -9.121457 -1.708215 -4.183881 62.943152 -0.513116 2.774197 8.646514 1.007900 -0.000001 -60.816601
2.608587 16.731454 8.100620 6.954811 -4.310915 3.470748 -8.314831 2.634406 0.983914 -18.416342 4.075735 -22.968618 -2.398058 1.259474 30.986610 2.523963 13.018629 -13.616305 -1.427100 0.000000 -17.613800 12.936566 -2.675789 -0.270897 1.355846 -3.760882 -10.621842 -1.806097 -4.261869 64.618793 -0.679784 0.646632 6.780191 0.405100 -0.000000 -57.293700
2.637380 16.745051 8.220124 6.842619 -4.783395 3.295413 -8.421277 2.635408 0.875728 -18.225776 4.537232 -22.242096 -2.383057 1.241501 30.855421 2.558718 13.219792 -13.927580 -1.534900 -0.000001 -17.761500 12.894056 -2.550476 -0.327885 1.509942 -3.826136 -12.101042 -1.873623 -4.328735 66.039216 -0.822594 -1.104318 4.868787 -0.006700 0.000000 -53.466000
2.665792 16.759275 8.339422 6.715475 -5.229969 3.131266 -8.534873 2.639140 0.756105 -18.019064 5.100499 -21.516985 -2.377306 1.218942 30.650218 2.572615 13.308608 -14.202447 -1.626300 -0.000001 -17.976200 12.837061 -2.428089 -0.366773 1.697396 -3.860693 -13.563372 -1.911460 -4.383162 67.201112 -0.936289 -2.464546 2.990096 -0.250600 -0.000000 -49.541700
2.693488 16.773793 8.458497 6.578453 -5.643396 2.982488 -8.651878 2.645718 0.629008 -17.800632 5.742301 -20.791541 -2.381279 1.191074 30.369024 2.567477 13.288669 -14.453314 -1.702800 -0.000000 -18.233801 12.767914 -2.307414 -0.389257 1.908709 -3.875730 -15.010884 -1.920922 -4.424296 68.104862 -1.018225 -3.448107 1.205962 -0.363000 0.000000 -45.715799
2.720253 16.788316 8.577354 6.434845 -6.014539 2.851903 -8.768822 2.654890 0.499008 -17.574654 6.433132 -20.063278 -2.394255 1.157703 30.015642 2.546240 13.171297 -14.689412 -1.766000 -0.000000 -18.510500 12.688701 -2.186875 -0.398191 2.135893 -3.883882 -16.443005 -1.903798 -4.451731 68.753639 -1.068860 -4.092172 -0.439546 -0.383800 -0.000000 -42.158200
2.745789 16.802544 8.695976 6.289228 -6.333442 2.739708 -8.882390 2.666216 0.370885 -17.344860 7.140056 -19.328941 -2.414677 1.119094 29.597908 2.512398 12.973270 -14.915309 -1.817200 -0.000000 -18.785599 12.601593 -2.064722 -0.397277 2.371746 -3.898891 -17.856355 -1.862290 -4.465543 69.152781 -1.091610 -4.450577 -1.920635 -0.349400 0.000000 -39.003500
2.769906 16.816263 8.814354 6.144859 -6.590607 2.644525 -8.989867 2.679216 0.249010 -17.114444 7.830856 -18.584476 -2.440302 1.075926 29.126459 2.469829 12.715644 -15.132057 -1.857700 0.000000 -19.046501 12.508335 -1.939405 -0.390689 2.610819 -3.934331 -19.244948 -1.798695 -4.466114 69.308886 -1.092230 -4.587600 -3.229863 -0.288201 0.000000 -36.332800
2.792428 16.829334 8.932544 6.003628 -6.778787 2.564736 -9.088962 2.693196 0.136251 -16.884916 8.476891 -17.826339 -2.468537 1.029292 28.613514 2.422231 12.420692 -15.336824 -1.888200 -0.000000 -19.288900 12.410544 -1.809226 -0.383467 2.849166 -4.003003 -20.601844 -1.715179 -4.454204 69.230418 -1.078032 -4.572192 -4.378021 -0.219300 -0.000000 -34.145700
2.813253 16.841678 9.050573 5.868320 -6.892203 2.495585 -9.178345 2.707884 0.035864 -16.657855 9.054741 -17.049997 -2.496644 0.980244 28.070270 2.372888 12.110364 -15.523306 -1.909400 -0.000000 -19.518500 12.309180 -1.673882 -0.379092 3.083313 -4.115975 -21.917903 -1.613700 -4.430674 68.926515 -1.057025 -4.472314 -5.387821 -0.153301 -0.000000 -32.387800
2.832301 16.853312 9.168557 5.739481 -6.929136 2.434506 -9.257182 2.722713 -0.051287 -16.432841 9.549417 -16.253512 -2.522256 0.929997 27.506767 2.324379 11.803456 -15.684335 -1.921600 0.000000 -19.749300 12.204889 -1.532758 -0.381439 3.312250 -4.281635 -23.185958 -1.495715 -4.396459 68.407012 -1.037110 -4.350225 -6.292757 -0.094000 -0.000000 -30.916300
2.849550 16.864273 9.286606 5.618543 -6.890828 2.376868 -9.325741 2.737546 -0.124031 -16.209249 9.953499 -15.434773 -2.543398 0.879449 26.930309 2.278390 11.514312 -15.811960 -1.925300 0.000000 -20.000000 12.097562 -1.386698 -0.392066 3.535263 -4.505202 -24.398529 -1.362557 -4.352318 67.681825 -1.025470 -4.258431 -7.125634 -0.040900 0.000000 -29.582401
2.865265 16.874707 9.404866 5.501429 -6.782990 2.321206 -9.385100 2.751843 -0.183196 -15.985041 10.268205 -14.595025 -2.558692 0.829408 26.345963 2.235672 11.251098 -15.899872 -1.920500 0.000000 -20.290900 11.986399 -1.236486 -0.412198 3.754036 -4.788027 -25.550753 -1.215318 -4.298772 66.760087 -1.028174 -4.237503 -7.914292 0.009101 -0.000000 -28.228500
